<?xml version="1.0" encoding="UTF-8" standalone="no"?>
<!-- Created with Inkscape (http://www.inkscape.org/) -->

<svg
   width="228.78096mm"
   height="77.822914mm"
   viewBox="0 0 228.78096 77.822914"
   version="1.1"
   id="svg1"
   xmlns="http://www.w3.org/2000/svg"
   xmlns:svg="http://www.w3.org/2000/svg">
  <defs
     id="defs1" />
  <g
     id="layer1"
     transform="translate(0.06894382,-184.44756)">
    <path
       style="fill:none;stroke:#1e1e1e;stroke-width:3;stroke-linecap:round;stroke-linejoin:round;stroke-dasharray:none"
       d="m 2.4253769,228.0447 c -0.9701023,-3.6438 -1.1971464,-6.93645 -0.8258801,-9.891 2.4958376,-19.86195 32.0305272,-24.44415 44.6292492,-17.70732 18.401052,9.83947 16.074417,-18.36412 8.405227,-14.06962 -7.66919,4.2945 -0.256473,44.82912 -16.722153,53.6795 -8.20087,4.408 -23.417038,-7.09442 -13.244307,-11.28792 12.269232,-5.05773 58.044921,1.30981 73.703587,-7.91379 13.33873,-7.85705 -9.965852,-7.67831 -21.34543,5.14153 -15.551204,17.51945 22.814013,22.86467 41.19962,0.46242 12.15215,-14.80699 26.25095,-8.42208 26.25095,-8.42208 -3.77764,-1.32429 -16.56779,-5.02149 -19.49791,11.22435 -1.6585,9.1954 8.55913,13.60107 15.87615,10.18907 7.31702,-3.41199 9.54379,-14.85767 7.61469,-22.09665 -4.30147,-16.14131 -5.66986,21.3358 3.62979,20.87736 13.7875,-0.67968 25.86813,-32.62788 44.21378,-21.0593 -11.42296,-5.49784 -17.97236,2.03018 -19.75548,8.36291 -2.64077,9.37862 2.72054,15.5397 10.9848,12.2847 8.26426,-3.255 28.59971,-48.14904 21.92381,-42.97205 -6.6759,5.17699 -19.07957,39.50636 -11.1292,42.00926 9.867,3.10628 33.79511,5.67094 27.9728,-1.94045 -11.00964,-14.39266 -33.24788,50.6762 -164.138046,15.06142"
       id="path2" />
  </g>
</svg>
